<mxfile host="app.diagrams.net" modified="2024-07-04T02:57:48.081Z" agent="Mozilla/5.0 (Windows NT 10.0; Win64; x64) AppleWebKit/537.36 (KHTML, like Gecko) Chrome/126.0.0.0 Safari/537.36" etag="A9jNiTf_iKiJQmHEhXez" version="24.6.4" type="github">
  <diagram name="Page-1" id="8JVAxtpCzW_CjiPYmNEG">
    <mxGraphModel dx="1834" dy="1222" grid="1" gridSize="10" guides="1" tooltips="1" connect="1" arrows="1" fold="1" page="0" pageScale="1" pageWidth="1654" pageHeight="1169" math="1" shadow="0">
      <root>
        <mxCell id="0" />
        <mxCell id="1" parent="0" />
        <mxCell id="L573c-_qUAe4s1flhVDZ-20" value="" style="edgeStyle=none;curved=1;rounded=0;orthogonalLoop=1;jettySize=auto;html=1;fontSize=12;startSize=8;endSize=8;" edge="1" parent="1" source="L573c-_qUAe4s1flhVDZ-1" target="L573c-_qUAe4s1flhVDZ-19">
          <mxGeometry relative="1" as="geometry" />
        </mxCell>
        <mxCell id="L573c-_qUAe4s1flhVDZ-1" value="GPT 3.5" style="sketch=0;outlineConnect=0;fontColor=#232F3E;gradientColor=none;fillColor=#01A88D;strokeColor=none;dashed=0;verticalLabelPosition=bottom;verticalAlign=top;align=center;html=1;fontSize=15;fontStyle=0;aspect=fixed;pointerEvents=1;shape=mxgraph.aws4.sagemaker_model;" vertex="1" parent="1">
          <mxGeometry x="-170" y="-80" width="120" height="120" as="geometry" />
        </mxCell>
        <mxCell id="L573c-_qUAe4s1flhVDZ-16" value="" style="edgeStyle=none;curved=1;rounded=0;orthogonalLoop=1;jettySize=auto;html=1;fontSize=12;startSize=8;endSize=8;exitX=1;exitY=0.5;exitDx=0;exitDy=0;" edge="1" parent="1" source="L573c-_qUAe4s1flhVDZ-2" target="L573c-_qUAe4s1flhVDZ-1">
          <mxGeometry relative="1" as="geometry" />
        </mxCell>
        <mxCell id="L573c-_qUAe4s1flhVDZ-2" value="University Admission Guidelines" style="rounded=1;whiteSpace=wrap;html=1;fontSize=14;" vertex="1" parent="1">
          <mxGeometry x="-400" y="-120" width="150" height="80" as="geometry" />
        </mxCell>
        <mxCell id="L573c-_qUAe4s1flhVDZ-15" value="" style="edgeStyle=none;curved=1;rounded=0;orthogonalLoop=1;jettySize=auto;html=1;fontSize=12;startSize=8;endSize=8;exitX=1;exitY=0.5;exitDx=0;exitDy=0;" edge="1" parent="1" source="L573c-_qUAe4s1flhVDZ-3" target="L573c-_qUAe4s1flhVDZ-1">
          <mxGeometry relative="1" as="geometry" />
        </mxCell>
        <mxCell id="L573c-_qUAe4s1flhVDZ-3" value="University Admission&amp;nbsp;&lt;div style=&quot;font-size: 14px;&quot;&gt;FAQs&lt;/div&gt;" style="rounded=1;whiteSpace=wrap;html=1;fontSize=14;" vertex="1" parent="1">
          <mxGeometry x="-400" width="150" height="80" as="geometry" />
        </mxCell>
        <mxCell id="L573c-_qUAe4s1flhVDZ-19" value="Summarized&amp;nbsp;&lt;div style=&quot;font-size: 15px;&quot;&gt;Text&lt;/div&gt;" style="rounded=1;whiteSpace=wrap;html=1;fontSize=15;" vertex="1" parent="1">
          <mxGeometry x="40" y="-60" width="140" height="80" as="geometry" />
        </mxCell>
        <mxCell id="L573c-_qUAe4s1flhVDZ-21" value="" style="edgeStyle=none;curved=1;rounded=0;orthogonalLoop=1;jettySize=auto;html=1;fontSize=12;startSize=8;endSize=8;" edge="1" parent="1" source="L573c-_qUAe4s1flhVDZ-22" target="L573c-_qUAe4s1flhVDZ-27">
          <mxGeometry relative="1" as="geometry" />
        </mxCell>
        <mxCell id="L573c-_qUAe4s1flhVDZ-22" value="Foundational LLM" style="sketch=0;outlineConnect=0;fontColor=#232F3E;gradientColor=none;fillColor=#01A88D;strokeColor=none;dashed=0;verticalLabelPosition=bottom;verticalAlign=top;align=center;html=1;fontSize=15;fontStyle=0;aspect=fixed;pointerEvents=1;shape=mxgraph.aws4.sagemaker_model;" vertex="1" parent="1">
          <mxGeometry x="-170" y="550" width="120" height="120" as="geometry" />
        </mxCell>
        <mxCell id="L573c-_qUAe4s1flhVDZ-23" value="" style="edgeStyle=none;curved=1;rounded=0;orthogonalLoop=1;jettySize=auto;html=1;fontSize=12;startSize=8;endSize=8;exitX=1;exitY=0.5;exitDx=0;exitDy=0;" edge="1" parent="1" source="L573c-_qUAe4s1flhVDZ-24" target="L573c-_qUAe4s1flhVDZ-22">
          <mxGeometry relative="1" as="geometry" />
        </mxCell>
        <mxCell id="L573c-_qUAe4s1flhVDZ-24" value="Summarized&amp;nbsp;&lt;div&gt;Admission Text&lt;/div&gt;" style="rounded=1;whiteSpace=wrap;html=1;fontSize=14;" vertex="1" parent="1">
          <mxGeometry x="-400" y="510" width="150" height="80" as="geometry" />
        </mxCell>
        <mxCell id="L573c-_qUAe4s1flhVDZ-25" value="" style="edgeStyle=none;curved=1;rounded=0;orthogonalLoop=1;jettySize=auto;html=1;fontSize=12;startSize=8;endSize=8;exitX=1;exitY=0.5;exitDx=0;exitDy=0;" edge="1" parent="1" source="L573c-_qUAe4s1flhVDZ-26" target="L573c-_qUAe4s1flhVDZ-22">
          <mxGeometry relative="1" as="geometry" />
        </mxCell>
        <mxCell id="L573c-_qUAe4s1flhVDZ-26" value="University Admission&amp;nbsp;&lt;div style=&quot;font-size: 14px;&quot;&gt;FAQs&lt;/div&gt;&lt;div style=&quot;font-size: 14px;&quot;&gt;(Ground Truth)&lt;/div&gt;" style="rounded=1;whiteSpace=wrap;html=1;fontSize=14;" vertex="1" parent="1">
          <mxGeometry x="-400" y="630" width="150" height="80" as="geometry" />
        </mxCell>
        <mxCell id="L573c-_qUAe4s1flhVDZ-36" style="edgeStyle=none;curved=1;rounded=0;orthogonalLoop=1;jettySize=auto;html=1;exitX=1;exitY=0.5;exitDx=0;exitDy=0;fontSize=12;startSize=8;endSize=8;" edge="1" parent="1" source="L573c-_qUAe4s1flhVDZ-27" target="L573c-_qUAe4s1flhVDZ-35">
          <mxGeometry relative="1" as="geometry" />
        </mxCell>
        <mxCell id="L573c-_qUAe4s1flhVDZ-27" value="PEFT&lt;div&gt;&amp;amp;&lt;/div&gt;&lt;div&gt;QLoRA&lt;/div&gt;" style="rounded=1;whiteSpace=wrap;html=1;fontSize=15;" vertex="1" parent="1">
          <mxGeometry x="40" y="570" width="140" height="80" as="geometry" />
        </mxCell>
        <mxCell id="L573c-_qUAe4s1flhVDZ-34" style="edgeStyle=orthogonalEdgeStyle;rounded=0;orthogonalLoop=1;jettySize=auto;html=1;exitX=1;exitY=0.5;exitDx=0;exitDy=0;fontSize=12;startSize=8;endSize=8;" edge="1" parent="1" source="L573c-_qUAe4s1flhVDZ-28" target="L573c-_qUAe4s1flhVDZ-22">
          <mxGeometry relative="1" as="geometry" />
        </mxCell>
        <mxCell id="L573c-_qUAe4s1flhVDZ-28" value="Pretrained&#xa;Weights" style="shape=image;html=1;verticalAlign=top;verticalLabelPosition=bottom;imageAspect=0;aspect=fixed;image=https://cdn1.iconfinder.com/data/icons/hawcons/32/699927-icon-18-weights-128.png;spacingBottom=0;" vertex="1" parent="1">
          <mxGeometry x="-364" y="360" width="78" height="78" as="geometry" />
        </mxCell>
        <mxCell id="L573c-_qUAe4s1flhVDZ-41" value="" style="edgeStyle=none;curved=1;rounded=0;orthogonalLoop=1;jettySize=auto;html=1;fontSize=12;startSize=8;endSize=8;" edge="1" parent="1" source="L573c-_qUAe4s1flhVDZ-35" target="L573c-_qUAe4s1flhVDZ-40">
          <mxGeometry relative="1" as="geometry" />
        </mxCell>
        <mxCell id="L573c-_qUAe4s1flhVDZ-35" value="Fine-tuned LLM" style="sketch=0;outlineConnect=0;fontColor=#232F3E;gradientColor=none;fillColor=#01A88D;strokeColor=none;dashed=0;verticalLabelPosition=bottom;verticalAlign=top;align=center;html=1;fontSize=15;fontStyle=0;aspect=fixed;pointerEvents=1;shape=mxgraph.aws4.sagemaker_model;" vertex="1" parent="1">
          <mxGeometry x="270" y="550" width="120" height="120" as="geometry" />
        </mxCell>
        <mxCell id="L573c-_qUAe4s1flhVDZ-39" style="edgeStyle=none;curved=1;rounded=0;orthogonalLoop=1;jettySize=auto;html=1;fontSize=12;startSize=8;endSize=8;" edge="1" parent="1" source="L573c-_qUAe4s1flhVDZ-38" target="L573c-_qUAe4s1flhVDZ-35">
          <mxGeometry relative="1" as="geometry" />
        </mxCell>
        <mxCell id="L573c-_qUAe4s1flhVDZ-38" value="Summarized&amp;nbsp;&lt;div&gt;Admission Text&lt;/div&gt;" style="rounded=1;whiteSpace=wrap;html=1;fontSize=14;" vertex="1" parent="1">
          <mxGeometry x="267.5" y="430" width="125" height="60" as="geometry" />
        </mxCell>
        <mxCell id="L573c-_qUAe4s1flhVDZ-40" value="Generated&amp;nbsp;&lt;div style=&quot;font-size: 14px;&quot;&gt;FAQs&lt;/div&gt;" style="rounded=1;whiteSpace=wrap;html=1;fontSize=14;" vertex="1" parent="1">
          <mxGeometry x="480" y="570" width="150" height="80" as="geometry" />
        </mxCell>
      </root>
    </mxGraphModel>
  </diagram>
</mxfile>
